<svg width="34" height="33" viewBox="0 0 34 33" fill="none" xmlns="http://www.w3.org/2000/svg">
<circle cx="17.114" cy="16.672" r="16.3278" fill="#D80202"/>
<mask id="mask0_2579_310" style="mask-type:alpha" maskUnits="userSpaceOnUse" x="0" y="0" width="34" height="33">
<circle cx="17.1128" cy="16.6722" r="16.3278" fill="#78CBED"/>
</mask>
<g mask="url(#mask0_2579_310)">
<path d="M17.1116 22.6379C5.02273 24.3649 0.94077 14.631 0.155778 13.061L-0.0012207 15.73C0.94077 17.771 4.08074 28.7609 17.1116 27.5049C26.0605 26.6423 27.9445 31.5868 28.4155 32.9998L28.7295 32.5288C27.7875 26.2489 24.4905 22.0099 17.1116 22.6379Z" fill="#EFC7B0"/>
</g>
<mask id="mask1_2579_310" style="mask-type:alpha" maskUnits="userSpaceOnUse" x="0" y="13" width="29" height="20">
<path d="M17.1128 22.638C5.02395 24.3649 0.941991 14.631 0.156998 13.0611L0 15.73C0.941991 17.771 4.08196 28.7609 17.1128 27.5049C26.0617 26.6424 27.9457 31.5869 28.4167 32.9998L28.7307 32.5289C27.7887 26.2489 24.4918 22.01 17.1128 22.638Z" fill="black"/>
</mask>
<g mask="url(#mask1_2579_310)">
<path d="M17.1136 22.4809V27.5049M21.5095 22.7949L21.1955 27.5049M25.2775 24.5219L24.3355 28.4469M12.5606 22.6379L12.2466 27.3479M8.63566 21.6959L7.69367 26.0919M5.02469 19.6549L3.45471 22.4809M2.66972 17.143L1.09973 18.8699" stroke="#D80202" stroke-width="0.194422"/>
</g>
<path d="M15.5204 13.3451C15.5382 12.796 15.4199 12.2478 15.1721 11.7319C14.9243 11.2159 14.5519 10.7424 14.0762 10.3382C13.6006 9.93408 13.0309 9.60724 12.3997 9.37639C11.7686 9.14553 11.0883 9.01518 10.3978 8.99277C9.70725 8.97035 9.01997 9.05632 8.37517 9.24576C7.73038 9.4352 7.14071 9.72441 6.63982 10.0969C6.13894 10.4693 5.73665 10.9177 5.45593 11.4165C5.1752 11.9153 5.02154 12.4546 5.00372 13.0038L6.63466 13.0567C6.64696 12.6779 6.75296 12.3058 6.94661 11.9617C7.14026 11.6177 7.41778 11.3083 7.76331 11.0514C8.10884 10.7945 8.51561 10.595 8.96042 10.4643C9.40522 10.3336 9.87933 10.2743 10.3557 10.2898C10.832 10.3052 11.3013 10.3951 11.7367 10.5544C12.1721 10.7137 12.5651 10.9391 12.8932 11.2179C13.2214 11.4967 13.4782 11.8234 13.6492 12.1793C13.8201 12.5352 13.9018 12.9133 13.8895 13.2922L15.5204 13.3451Z" fill="#EFC7B0"/>
<path d="M21.3964 6.9441C20.9576 7.27476 20.605 7.71086 20.3588 8.2275C20.1125 8.74414 19.9773 9.33121 19.9611 9.95519C19.9448 10.5792 20.0477 11.2278 20.264 11.8641C20.4802 12.5004 20.8055 13.1119 21.2213 13.6637C21.6371 14.2155 22.1352 14.6967 22.6873 15.08C23.2394 15.4632 23.8345 15.7409 24.4388 15.8973C25.0431 16.0536 25.6447 16.0856 26.2092 15.9912C26.7737 15.8969 27.2901 15.6782 27.7289 15.3475L24.5627 11.1458L21.3964 6.9441Z" fill="#EFC7B0"/>
</svg>
