<svg xmlns="http://www.w3.org/2000/svg" version="1.1" xmlns:xlink="http://www.w3.org/1999/xlink" xmlns:svgjs="http://svgjs.dev/svgjs" width="100%" height="100%" viewBox="0 0 1000 600"><rect width="1000" height="600" x="0" y="0" fill="#191919"/><g><circle r="166.66666666666666" cx="384.2714487711588" cy="406.4936881966181" fill="#b88746" transform="matrix(0.5744357575787608,0,0,0.5744357575787608,0,66.49546738160751)"/><path d="M441.31789924841485 331.4936922377064L441.31789924841485 382.4960730539744L424.58506911488155 346.6782889781014L371.20079077070847 357.2479592581803L373.19562995032896 395.5667357383536L388.97570107270025 395.5667357383536L406.3635530264075 370.34839566165834L406.3635530264075 433.9748333758233L388.1420369379335 405.9279899847408L373.82087805140407 407.59531825427433L376.6493813657914 459.93751642998893L407.40563319486597 473.037952833467L327.5525185718475 481.49368905753005L350.2698662442424 461.1880126321391L355.8077779966217 360.82080555003796L327.2250076617605 335.6024654733427L441.31789924841485 331.4936922377064Z " fill="#191919" transform="matrix(0.5744357575787608,0,0,0.5744357575787608,0,66.49546738160751)"/><path d="M745.0442414949689 331.4936922112655L745.0442414949689 381.01190439518376L728.7983365052653 346.23641737985764L676.9675399811758 356.4985103893678L678.9043293660693 393.70221096187385L694.2252006197042 393.70221096187385L711.1070663029548 369.21772426031004L711.1070663029548 430.99263344713626L693.4157961006442 403.76195284161906L679.5113827553641 405.38076187973894L682.2575766593177 456.1998027550036L712.1188219517796 468.9190166259458L634.5894319475365 477.12869103355393L656.6457050919203 457.41390953359354L662.0224636828186 359.96738689962484L634.2714516007629 335.48290019806103L745.0442414949689 331.4936922112655ZM840.7852331780612 411.79818342371436L840.7852331780612 411.79818342371436Q840.7852331780612 417.17494201461267 840.1781797887663 423.39001242882307Q839.5711263994713 429.57617553878134 838.3859269251334 435.9646897785046Q837.2296347550478 442.38211132248 835.6397330211801 448.53936712818614Q834.0787385915644 454.6677156296401 832.2575784236794 459.87103039502557L832.2575784236794 459.87103039502557L853.8802420042812 475.1051797359041L815.5780638701938 473.48637069778414L817.9195555146173 460.96950795660695Q811.8201143174156 468.60103627917226 803.8416983438244 472.6191515702199Q795.8632823702335 476.63726686126756 785.3988382309583 477.44667138032753L785.3988382309583 477.44667138032753Q776.8711834765766 478.05372476962253 770.5115765411053 476.2614719059897Q764.1519696056343 474.4981263466091 759.9315031848216 470.797991402335Q755.7110367640089 467.0689491538088 753.6875254663591 461.63437595440615Q751.6640141687092 456.1998027550036 751.6640141687092 449.49330816850676L751.6640141687092 449.49330816850676Q751.6640141687092 443.30714505854854 754.699281115184 437.4389622953638Q757.7634553659111 431.59968683643126 763.487101607835 427.14796198160144Q769.2396551540112 422.66732982251955 777.5649587786279 419.97895052707037Q785.8902624032446 417.29057123162124 796.4703357595283 417.29057123162124L796.4703357595283 417.29057123162124Q801.3556701781404 417.29057123162124 807.7152771136114 418.18669766343766Q814.0459767448303 419.11173139950614 819.7407156825022 422.0602764332246L819.7407156825022 422.0602764332246Q819.2492915102159 415.84520601901414 817.861740906113 409.39887717078665Q816.5030976062624 402.9525483225591 813.8436256150653 397.6625116444172Q811.2130609281205 392.3724749662753 806.9925945073078 389.0770422815312Q802.7721280864953 385.78160959678706 796.4703357595283 385.78160959678706L796.4703357595283 385.78160959678706Q791.0935771686302 385.78160959678706 786.0058916202531 388.00747202420195Q780.9182060718763 390.2333344516169 776.4953885212988 394.42489356817737Q772.072570970721 398.5875453804857 768.5169725477076 404.57135736067903Q764.9613741246942 410.5840766451244 762.5331605675144 418.0999757506812L762.5331605675144 418.0999757506812L754.0055058131327 368.29269052424155L766.8981635095877 388.1231012412105Q771.667868711191 382.22601117377366 776.553203129803 378.69932005501244Q781.4385375484148 375.20153624050334 786.2660573585224 373.32256146411413Q791.0935771686302 371.4435866877249 795.6031166319642 370.83653329842997Q800.1415633995503 370.229479909135 804.3042152118587 370.229479909135L804.3042152118587 370.229479909135Q812.1091873599369 370.634182168665 818.7867746421816 373.4381906811227Q825.4354546201741 376.2132918893283 830.320789038786 381.4455139589659Q835.2061234573978 386.6777360286035 837.9812246656033 394.3092643511688Q840.7852331780612 401.94079267373417 840.7852331780612 411.79818342371436ZM819.7407156825022 444.3189007073735L819.7407156825022 444.3189007073735Q819.9430668122673 441.45707758641146 820.0586960292758 438.8265128994666Q820.1454179420323 436.1959482125217 820.1454179420323 433.65210543833325L820.1454179420323 433.65210543833325L820.1454179420323 432.4090913554912Q816.5030976062624 430.99263344713626 812.7740553577362 430.2410435365806Q809.073920413462 429.46054632177277 805.9230242499787 429.1136586707471Q802.7721280864953 428.7667710197214 800.5751729633325 428.7089564112171Q798.4071251444218 428.6511418027128 797.6844425381182 428.6511418027128L797.6844425381182 428.6511418027128Q791.90298168769 428.8534929324778 787.6247006583731 430.7902823173713Q783.3753269333083 432.72707170226477 780.5713184208505 435.6178021274789Q777.7673099083929 438.50853255269305 776.4086666085423 442.0641309757064Q775.0211160044394 445.6197293987198 775.0211160044394 449.08860590897683L775.0211160044394 449.08860590897683Q775.0211160044394 456.9224853613071 778.836880165722 460.9406006523548Q782.6526443270047 464.9298086391503 789.9661923027966 464.9298086391503L789.9661923027966 464.9298086391503Q794.8515267214084 464.9298086391503 799.2165296634819 463.22427768827396Q803.5815326055551 461.4898394331455 807.3972967668378 458.5991090079313Q811.2130609281205 455.7083785827172 814.3061424830996 451.9793363341909Q817.3992240380787 448.27920138991686 819.7407156825022 444.3189007073735ZM912.8222353743977 379.7688903123417L958.2645176587639 381.82130891424373L939.272418765107 392.8928064428139L917.0137944909582 466.3751738517573L932.6526460913667 477.12869103355393L871.6871414236005 475.712233125199L890.5925184045009 462.819575428744L860.3843854610132 390.14661253886044L847.0870255050281 382.3127330865301L900.652260284246 376.2132918893283L888.3377486728339 388.32545237097554L903.4851761009559 457.81861179312347L928.0852920195282 393.0951575725789L912.8222353743977 379.7688903123417ZM1008.4765051447334 468.9190166259458L957.050410880174 476.11693538472906L973.0072428273561 463.62897994780394L969.538366317099 393.4998598321088L950.7486185532073 381.2142555249488L994.456462582445 373.78507833214843L986.6225831301147 455.27476901893505L1008.4765051447334 468.9190166259458ZM995.5549401440264 349.18496241357605L995.5549401440264 349.18496241357605Q995.5549401440264 352.2491366643031 994.3408333654363 354.9375159597522Q993.1267265868464 357.6258952552013 990.9875860721879 359.70722116135556Q988.8484455575297 361.7885470675097 986.1022516535761 362.9737465418475Q983.3560577496228 364.13003871193314 980.3207908031479 364.13003871193314L980.3207908031479 364.13003871193314Q977.0542654226558 364.13003871193314 974.2791642144502 362.9737465418475Q971.4751557019927 361.7885470675097 969.4516444043427 359.70722116135556Q967.3992258024407 357.6258952552013 966.1851190238508 354.9375159597522Q964.9710122452607 352.2491366643031 964.9710122452607 349.18496241357605L964.9710122452607 349.18496241357605Q964.9710122452607 346.0340662500926 966.1851190238508 343.3456869546435Q967.3992258024407 340.6573076591944 969.4516444043427 338.6337963615444Q971.4751557019927 336.5813777596424 974.2791642144502 335.4250855895567Q977.0542654226558 334.23988611521895 980.3207908031479 334.23988611521895L980.3207908031479 334.23988611521895Q983.3560577496228 334.23988611521895 986.1022516535761 335.4250855895567Q988.8484455575297 336.5813777596424 990.9875860721879 338.6337963615444Q993.1267265868464 340.6573076591944 994.3408333654363 343.3456869546435Q995.5549401440264 346.0340662500926 995.5549401440264 349.18496241357605ZM1059.7869701922846 373.5827272023834L1059.7869701922846 373.5827272023834Q1068.3146249466663 373.5827272023834 1075.2812852714324 377.2828621466575Q1082.2479455961984 381.01190439518376 1086.5262266255154 387.2847894178984L1086.5262266255154 387.2847894178984L1107.0504126445358 366.4715303563566L1090.1685469612853 421.4532230439296Q1089.272420529469 412.89666098529574 1087.3356311445752 406.97066361360675Q1085.3988417596818 401.0157589376656 1082.9128135939977 397.1132728636265Q1080.4267854283135 393.1818794853353 1077.7384061328644 391.071646274929Q1075.021119533163 388.9325057602705 1072.737442497244 387.92075011144556Q1070.4537654613248 386.88008715836844 1068.7771418147006 386.6777360286035Q1067.1005181680764 386.4753848988385 1066.6958159085464 386.4753848988385L1066.6958159085464 386.4753848988385Q1059.3822679327545 386.4753848988385 1053.4851778653178 389.33720801980047Q1047.588087797881 392.17012383651036 1043.3676213770682 397.6625116444172Q1039.1471549562557 403.15489945232406 1036.9212925288407 411.1333154259151Q1034.695430101426 419.11173139950614 1034.695430101426 429.2581951920078L1034.695430101426 429.2581951920078Q1034.695430101426 439.02886402923156 1037.0369217458494 446.48694852628404Q1039.3495060860205 453.9739403275887 1043.2230848558077 459.0616258759656Q1047.0966636255946 464.1204041200903 1052.068719956963 466.7220615027831Q1057.040776288331 469.3237188854758 1062.330812966473 469.3237188854758L1062.330812966473 469.3237188854758Q1068.5169760764313 469.3237188854758 1073.8070127545732 466.5197103730181Q1079.097049432715 463.7157018605604 1082.8549989854935 459.14834778872205Q1086.612948538272 454.58099371688365 1088.491923314661 448.62608904094253Q1090.37089809105 442.70009166925354 1089.7638447017553 436.39829934228675L1089.7638447017553 436.39829934228675Q1090.9779514803452 437.4967769038681 1092.3655020844478 439.115585941988Q1093.7241453842987 440.76330228436007 1094.9093448586364 442.72899897350567Q1096.065637028722 444.72360296690346 1096.7883196350256 447.0072800028226Q1097.4820949370771 449.2909570387418 1097.4820949370771 451.63244868316525L1097.4820949370771 451.63244868316525Q1097.4820949370771 458.54129439942704 1094.1866622523328 464.0914968158382Q1090.8912295675889 469.6127919279972 1085.7168221064555 473.48637069778414Q1080.51350734107 477.33104216331895 1074.0093638843382 479.4123680694732Q1067.5052204276062 481.4936939756273 1061.116706187883 481.4936939756273L1061.116706187883 481.4936939756273Q1058.3705122839297 481.4936939756273 1053.6297143865784 480.88664058633236Q1048.9178237934793 480.2795871970374 1043.3676213770682 478.4006124206482Q1037.8463262649093 476.521637644259 1032.1515873272374 472.9660392212456Q1026.4568483895655 469.41044079823223 1021.831679709223 463.51335073079537Q1017.2065110288802 457.6162606633585 1014.2579659951618 448.9729766919682Q1011.3094209614435 440.3586000248301 1011.3094209614435 428.2464395431828L1011.3094209614435 428.2464395431828Q1011.3094209614435 417.4929223613862 1013.7954491271275 409.1965260410216Q1016.2814772928118 400.9290370249092 1020.415221800868 394.82959582770735Q1024.520059004672 388.7301546305055 1029.6944664658054 384.65422473095356Q1034.8977812311907 380.5782948314016 1040.274539822089 378.15008127422175Q1045.6512984129874 375.72186771704185 1050.7967985698685 374.65229745971266Q1055.9133914224976 373.5827272023834 1059.7869701922846 373.5827272023834ZM1111.0107133270792 424.08378773087446L1111.0107133270792 424.08378773087446Q1111.0107133270792 412.6943098555308 1114.6241263585969 403.01036293106336Q1118.2375393901145 393.29750870234386 1124.683868238342 386.18631185631705Q1131.1301970865695 379.0751150102903 1140.0336467962293 375.05699971924264Q1148.9081892016366 371.038884428195 1159.4882625579203 371.038884428195L1159.4882625579203 371.038884428195Q1169.7503555674305 371.038884428195 1178.2780103218122 374.8546485894776Q1186.8345723804462 378.6704127507603 1193.136364707413 385.5792584670221Q1199.4381570343796 392.4881041832839 1203.196106587158 402.14314380349913Q1206.9540561399365 411.79818342371436 1207.6478314419878 423.4767343415795L1207.6478314419878 423.4767343415795Q1208.3705140482914 435.9646897785046 1205.0750813635475 446.0822462667541Q1201.7507413745511 456.1998027550036 1195.362227134828 463.2531849925261Q1188.9448055908524 470.3354745343008 1180.0702631854451 474.1801459998356Q1171.1668134757854 478.05372476962253 1160.817998553519 478.05372476962253L1160.817998553519 478.05372476962253Q1150.84497858653 478.05372476962253 1141.854806964114 474.44031173810487Q1132.864635341698 470.8268987065872 1125.9846969296884 463.91805299032535Q1119.133665821931 457.00920727406356 1115.0866432266312 447.0072800028226Q1111.0107133270792 437.0053527315817 1111.0107133270792 424.08378773087446ZM1136.0155315051816 425.818225986003L1136.0155315051816 425.818225986003Q1136.0155315051816 434.7505829999147 1138.5593742793699 441.97740906295Q1141.1032170535584 449.20423512598535 1145.3525907786232 454.234106065858Q1149.6308718079401 459.26397700573057 1155.2099815286035 461.9812636054319Q1160.817998553519 464.72745750938526 1167.004161663477 464.72745750938526L1167.004161663477 464.72745750938526Q1173.2192320776876 464.72745750938526 1178.5959906685857 462.0390782139362Q1183.972749259484 459.350698918487 1187.9330499420275 454.43645719562295Q1191.893350624571 449.49330816850676 1194.1481203562378 442.58446245224496Q1196.3739827836528 435.67561673598317 1196.3739827836528 427.2346838943579L1196.3739827836528 427.2346838943579Q1196.3739827836528 418.9093802697411 1194.1481203562378 411.5380176854451Q1191.893350624571 404.16665510114905 1187.9041426377753 398.67426729324217Q1183.8860273467276 393.1818794853353 1178.3936395388207 390.03098332185186Q1172.901251730914 386.88008715836844 1166.397108274182 386.88008715836844L1166.397108274182 386.88008715836844Q1160.615647423754 386.88008715836844 1155.152166920099 389.5395591495655Q1149.7175937206966 392.17012383651036 1145.4682199956317 397.19999477638294Q1141.189938966315 402.2298657162556 1138.5882815836221 409.4566917792909Q1136.0155315051816 416.68351784232624 1136.0155315051816 425.818225986003ZM1311.916477879462 412.0005345534793L1311.916477879462 412.0005345534793Q1311.916477879462 417.6952734911512 1311.4250537071757 423.9970658181181Q1310.9047222306372 430.29885814508486 1309.892966581812 436.6006504720517Q1308.8812109329872 442.9024427990185 1307.406938416128 448.8862547792118Q1305.9326658992688 454.87006675940506 1303.9958765143754 459.87103039502557L1303.9958765143754 459.87103039502557L1324.0286383611094 466.3751738517573L1271.0704569711863 476.723988774024L1289.0508002160182 463.22427768827396Q1291.1899407306767 455.3903982359436 1291.9704379454845 448.1635721729083Q1292.72202785604 440.96565341412503 1292.72202785604 434.54823187014966L1292.72202785604 434.54823187014966Q1292.72202785604 430.70356040461485 1292.4618621177708 425.76041137749866Q1292.2016963795015 420.84616965463465 1291.3344772519374 415.75848410625775Q1290.496165428625 410.67079855788086 1288.9062636947576 405.785464139269Q1287.345269265142 400.9290370249092 1284.8014264909534 397.1132728636265Q1282.2575837167649 393.29750870234386 1278.5285414682387 391.01383166642466Q1274.8284065239648 388.7301546305055 1269.6539990628314 388.7301546305055L1269.6539990628314 388.7301546305055Q1263.6412797783858 388.7301546305055 1257.4551166684275 392.69045531304886Q1251.2689535584693 396.65075599559225 1245.9789168803275 404.369006230914L1245.9789168803275 404.369006230914L1245.9789168803275 460.5648056970769L1262.7451533465694 472.56133696171565L1212.4464439478434 476.11693538472906L1225.7438039038284 461.3742102161369L1232.8550007498552 387.5160478519156L1211.2034298650015 376.8203452786233L1245.9789168803275 373.38037607261845L1245.9789168803275 388.7301546305055Q1248.9274619140458 384.65422473095356 1252.4830603370594 381.09862630794015Q1256.0386587600726 377.5430278849268 1259.9989594426163 374.94137050223407Q1263.9592601251595 372.36862042379346 1268.2664484587285 370.8943479069343Q1272.6025440965498 369.42007539007506 1277.1698981683883 369.42007539007506L1277.1698981683883 369.42007539007506Q1286.0155332695433 369.42007539007506 1292.5196767262753 372.65769346631487Q1299.0238201830068 375.92421884680687 1303.331008516576 381.6478650887309Q1307.667104154397 387.400418634907 1309.8062446690558 395.176483478733Q1311.916477879462 402.9525483225591 1311.916477879462 412.0005345534793ZM1360.7987293698332 469.3237188854758L1360.7987293698332 469.3237188854758Q1360.7987293698332 472.56133696171565 1359.122105723209 474.90282860613905Q1357.4454820765848 477.24432025056257 1355.017268519405 478.71859276742174Q1352.589054962225 480.19286528428097 1349.929582971028 480.85773328208023Q1347.299018284083 481.4936939756273 1345.3622288991899 481.4936939756273L1345.3622288991899 481.4936939756273Q1343.2230883845311 481.4936939756273 1340.5925236975863 480.85773328208023Q1337.9330517063893 480.19286528428097 1335.5915600619658 478.71859276742174Q1333.2789757217945 477.24432025056257 1331.6312593794225 474.90282860613905Q1330.0124503413026 472.56133696171565 1330.0124503413026 469.3237188854758L1330.0124503413026 469.3237188854758Q1330.0124503413026 465.8548423752188 1331.6312593794225 463.426628818039Q1333.2789757217945 460.96950795660695 1335.5915600619658 459.40851352699127Q1337.9330517063893 457.81861179312347 1340.5925236975863 457.12483649107213Q1343.2230883845311 456.40215388476855 1345.3622288991899 456.40215388476855L1345.3622288991899 456.40215388476855Q1347.299018284083 456.40215388476855 1349.929582971028 457.12483649107213Q1352.589054962225 457.81861179312347 1355.017268519405 459.40851352699127Q1357.4454820765848 460.96950795660695 1359.122105723209 463.426628818039Q1360.7987293698332 465.8548423752188 1360.7987293698332 469.3237188854758ZM1424.1346329862752 468.9190166259458L1372.7085387217155 476.11693538472906L1388.6653706688976 463.62897994780394L1385.1964941586405 393.4998598321088L1366.4067463947488 381.2142555249488L1410.0856831197343 373.78507833214843L1402.2807109716562 455.27476901893505L1424.1346329862752 468.9190166259458ZM1411.213067985568 349.18496241357605L1411.213067985568 349.18496241357605Q1411.213067985568 352.2491366643031 1409.9989612069778 354.9375159597522Q1408.784854428388 357.6258952552013 1406.6457139137294 359.70722116135556Q1404.506573399071 361.7885470675097 1401.7603794951176 362.9737465418475Q1399.014185591164 364.13003871193314 1395.9789186446894 364.13003871193314L1395.9789186446894 364.13003871193314Q1392.7123932641973 364.13003871193314 1389.937292055992 362.9737465418475Q1387.133283543534 361.7885470675097 1385.1097722458842 359.70722116135556Q1383.0573536439822 357.6258952552013 1381.843246865392 354.9375159597522Q1380.6291400868022 352.2491366643031 1380.6291400868022 349.18496241357605L1380.6291400868022 349.18496241357605Q1380.6291400868022 346.0340662500926 1381.843246865392 343.3456869546435Q1383.0573536439822 340.6573076591944 1385.1097722458842 338.6337963615444Q1387.133283543534 336.5813777596424 1389.937292055992 335.4250855895567Q1392.7123932641973 334.23988611521895 1395.9789186446894 334.23988611521895L1395.9789186446894 334.23988611521895Q1399.014185591164 334.23988611521895 1401.7603794951176 335.4250855895567Q1404.506573399071 336.5813777596424 1406.6457139137294 338.6337963615444Q1408.784854428388 340.6573076591944 1409.9989612069778 343.3456869546435Q1411.213067985568 346.0340662500926 1411.213067985568 349.18496241357605ZM1426.4472173264464 424.08378773087446L1426.4472173264464 424.08378773087446Q1426.4472173264464 412.6943098555308 1430.060630357964 403.01036293106336Q1433.6740433894818 393.29750870234386 1440.1203722377093 386.18631185631705Q1446.595608390189 379.0751150102903 1455.4701507955963 375.05699971924264Q1464.3736005052558 371.038884428195 1474.9247665572875 371.038884428195L1474.9247665572875 371.038884428195Q1485.1868595667977 371.038884428195 1493.7434216254317 374.8546485894776Q1502.2710763798132 378.6704127507603 1508.5728687067801 385.5792584670221Q1514.8746610337469 392.4881041832839 1518.6326105865253 402.14314380349913Q1522.3905601393037 411.79818342371436 1523.1132427456075 423.4767343415795L1523.1132427456075 423.4767343415795Q1523.8070180476586 435.9646897785046 1520.5115853629145 446.0822462667541Q1517.2161526781704 456.1998027550036 1510.7987311341951 463.2531849925261Q1504.4102168944717 470.3354745343008 1495.5067671848121 474.1801459998356Q1486.6322247794049 478.05372476962253 1476.254502552886 478.05372476962253L1476.254502552886 478.05372476962253Q1466.3103898901493 478.05372476962253 1457.2913109634812 474.44031173810487Q1448.3011393410654 470.8268987065872 1441.450108233308 463.91805299032535Q1434.5990771255504 457.00920727406356 1430.5231472259982 447.0072800028226Q1426.4472173264464 437.0053527315817 1426.4472173264464 424.08378773087446ZM1451.4520355045486 425.818225986003L1451.4520355045486 425.818225986003Q1451.4520355045486 434.7505829999147 1453.995878278737 441.97740906295Q1456.5397210529256 449.20423512598535 1460.8180020822426 454.234106065858Q1465.0673758073074 459.26397700573057 1470.6753928322225 461.9812636054319Q1476.254502552886 464.72745750938526 1482.4695729670964 464.72745750938526L1482.4695729670964 464.72745750938526Q1488.6557360770548 464.72745750938526 1494.0324946679532 462.0390782139362Q1499.4381605631036 459.350698918487 1503.3984612456468 454.43645719562295Q1507.3587619281905 449.49330816850676 1509.584624355605 442.58446245224496Q1511.839394087272 435.67561673598317 1511.839394087272 427.2346838943579L1511.839394087272 427.2346838943579Q1511.839394087272 418.9093802697411 1509.584624355605 411.5380176854451Q1507.3587619281905 404.16665510114905 1503.3406466371423 398.67426729324217Q1499.322531346095 393.1818794853353 1493.830143538188 390.03098332185186Q1488.337755730281 386.88008715836844 1481.8336122735493 386.88008715836844L1481.8336122735493 386.88008715836844Q1476.0521514231211 386.88008715836844 1470.6175782237185 389.5395591495655Q1465.183005024316 392.17012383651036 1460.904723994999 397.19999477638294Q1456.6553502699342 402.2298657162556 1454.0536928872414 409.4566917792909Q1451.4520355045486 416.68351784232624 1451.4520355045486 425.818225986003Z " fill="#b88746" transform="matrix(0.5744357575787608,0,0,0.5744357575787608,0,66.49546738160751)"/></g></svg>