<svg width="462" height="14" viewBox="0 0 462 14" fill="none" xmlns="http://www.w3.org/2000/svg">
<circle cx="1.5" cy="7" r="1" transform="rotate(180 1.5 7)" stroke="#EFC7B0"/>
<circle cx="19" cy="7" r="1.5" transform="rotate(180 19 7)" stroke="#EFC7B0"/>
<circle cx="37.5" cy="7" r="2" transform="rotate(180 37.5 7)" stroke="#EFC7B0"/>
<circle cx="57" cy="7" r="2.5" transform="rotate(180 57 7)" stroke="#EFC7B0"/>
<circle cx="77.5" cy="7" r="3" transform="rotate(180 77.5 7)" stroke="#EFC7B0"/>
<circle cx="99" cy="7" r="3.5" transform="rotate(180 99 7)" stroke="#EFC7B0"/>
<circle cx="121.5" cy="7" r="4" transform="rotate(180 121.5 7)" stroke="#EFC7B0"/>
<circle cx="145" cy="7" r="4.5" transform="rotate(180 145 7)" stroke="#EFC7B0"/>
<circle cx="169.5" cy="7" r="5" transform="rotate(180 169.5 7)" stroke="#EFC7B0"/>
<circle cx="195" cy="7" r="5.5" transform="rotate(180 195 7)" stroke="#EFC7B0"/>
<circle cx="222" cy="7" r="6.5" stroke="#EFC7B0"/>
<circle cx="249" cy="7" r="5.5" stroke="#EFC7B0"/>
<circle cx="274.5" cy="7" r="5" stroke="#EFC7B0"/>
<circle cx="299" cy="7" r="4.5" stroke="#EFC7B0"/>
<circle cx="322.5" cy="7" r="4" stroke="#EFC7B0"/>
<circle cx="345" cy="7" r="3.5" stroke="#EFC7B0"/>
<circle cx="366.5" cy="7" r="3" stroke="#EFC7B0"/>
<circle cx="387" cy="7" r="2.5" stroke="#EFC7B0"/>
<circle cx="406.5" cy="7" r="2" stroke="#EFC7B0"/>
<circle cx="425" cy="7" r="1.5" stroke="#EFC7B0"/>
<circle cx="442.5" cy="7" r="1" stroke="#EFC7B0"/>
</svg>
