<svg width="18" height="18" viewBox="0 0 18 18" fill="none" xmlns="http://www.w3.org/2000/svg">
<path d="M8.849 4.5C8.849 5.66667 10.949 9 13.349 9C12.349 9 8.849 11.1 8.849 13.5C8.849 12.5312 6.8781 9.21615 4.5729 9.01006C4.48628 9.01575 4.41092 9.01238 4.349 9C4.42394 9 4.4986 9.00341 4.5729 9.01006C5.65198 8.93912 8.47872 7.46221 8.849 4.5Z" fill="#D80202"/>
<path d="M8.849 0.5V4.5M8.849 4.5C8.849 5.66667 10.949 9 13.349 9M8.849 4.5C8.449 7.7 5.18233 9.16667 4.349 9M13.349 9C15.749 9 16.1823 9 16.849 9H13.349ZM13.349 9C12.349 9 8.849 11.1 8.849 13.5M8.849 13.5C8.849 15.9 8.849 16.6667 8.849 17.5V13.5ZM8.849 13.5C8.849 12.5 6.749 9 4.349 9M4.349 9C1.949 9 1.51567 9 0.848999 9H4.349Z" stroke="#EFC7B0" stroke-linecap="round" stroke-linejoin="round"/>
</svg>
